<svg width="500pt" height="600pt" xmlns="http://www.w3.org/2000/svg" xmlns:xlink="http://www.w3.org/1999/xlink"><defs><linearGradient id="e"><stop offset="0" stop-color="#3f2600" stop-opacity=".6"/><stop offset="1" stop-color="#3f2600" stop-opacity="0"/></linearGradient><linearGradient id="b"><stop offset="0" stop-color="#fff" stop-opacity=".65"/><stop offset="1" stop-color="#fff" stop-opacity="0"/></linearGradient><linearGradient id="d"><stop offset="0" stop-color="#ffa63f"/><stop offset="1" stop-color="#ff0"/></linearGradient><linearGradient id="c"><stop offset="0" stop-color="#ffeed7"/><stop offset="1" stop-color="#bdbfc2"/></linearGradient><linearGradient id="a"><stop offset="0" stop-color="#fff" stop-opacity=".8"/><stop offset="1" stop-color="#fff" stop-opacity="0"/></linearGradient><linearGradient xlink:href="#a" x1=".474" y1=".02" x2=".418" y2=".901" gradientUnits="objectBoundingBox"/><linearGradient xlink:href="#b" x1=".559" y1=".031" x2=".554" y2=".945" gradientUnits="objectBoundingBox"/><linearGradient xlink:href="#b" x1=".466" y1=".029" x2=".414" y2=".934" gradientUnits="objectBoundingBox"/><linearGradient xlink:href="#b" x1=".703" y1=".059" x2=".646" y2=".941" gradientUnits="objectBoundingBox"/><linearGradient xlink:href="#b" x1=".467" y1="-.036" x2=".867" y2=".759" gradientUnits="objectBoundingBox"/><linearGradient xlink:href="#b" x1=".572" y1=".023" x2=".571" y2=".719" gradientUnits="objectBoundingBox"/><linearGradient xlink:href="#b" x1=".5" y1=".023" x2=".5" y2=".813" gradientUnits="objectBoundingBox"/><linearGradient xlink:href="#b" x1=".508" y1=".374" x2=".516" y2=".928" gradientUnits="objectBoundingBox"/><linearGradient xlink:href="#a" x1=".5" y1=".132" x2=".504" y2=".946" gradientUnits="objectBoundingBox"/><linearGradient xlink:href="#b" x1="-.305" y1=".099" x2=".156" y2=".942" gradientUnits="objectBoundingBox" gradientTransform="matrix(-.929 .284 .435 .944 0 0)"/><linearGradient xlink:href="#b" x1=".434" y1=".022" x2=".487" y2="1.026" gradientUnits="objectBoundingBox"/><linearGradient xlink:href="#c" x1=".5" y1=".898" x2=".5" y2=".406" gradientUnits="objectBoundingBox" spreadMethod="reflect"/><linearGradient xlink:href="#c" x1=".436" y1=".989" x2=".454" y2=".231" gradientUnits="objectBoundingBox"/><linearGradient xlink:href="#c" x1=".492" y1="1.153" x2=".495" y2=".413" gradientUnits="objectBoundingBox"/><linearGradient xlink:href="#c" x1=".517" y1=".854" x2=".498" y2=".136" gradientUnits="objectBoundingBox"/><linearGradient xlink:href="#c" x1=".462" y1=".879" x2=".492" y2=".096" gradientUnits="objectBoundingBox"/><linearGradient xlink:href="#d" x1=".501" y1=".349" x2=".412" y2=".986" gradientUnits="objectBoundingBox"/><linearGradient xlink:href="#d" x1=".604" y1=".51" x2=".464" y2=".984" gradientUnits="objectBoundingBox"/><linearGradient xlink:href="#d" x1=".5" y1=".192" x2=".508" y2=".97" gradientUnits="objectBoundingBox"/><radialGradient xlink:href="#e" cx=".5" cy=".5" fx=".5" fy=".5" r=".5"/><radialGradient xlink:href="#e"/><linearGradient xlink:href="#c" x1=".94" y1="1.293" x2=".195" y2="-.675" gradientUnits="objectBoundingBox"/><radialGradient xlink:href="#e" id="f" gradientTransform="scale(1.045 .957)" cx="446.778" cy="1219.412" fx="446.778" fy="1219.412" r="195.072" gradientUnits="userSpaceOnUse"/><linearGradient xlink:href="#c" id="g" gradientUnits="userSpaceOnUse" x1="400.578" y1="369.53" x2="400.844" y2="304.079" gradientTransform="scale(.575 1.738)"/><linearGradient xlink:href="#a" id="h" gradientUnits="userSpaceOnUse" x1="303.018" y1="237.932" x2="297.086" y2="330.096" gradientTransform="scale(1.116 .896)"/><linearGradient xlink:href="#c" id="i" gradientUnits="userSpaceOnUse" gradientTransform="scale(.816 1.225)" x1="378.938" y1="278.602" x2="380.273" y2="243.916"/><linearGradient xlink:href="#c" id="j" gradientUnits="userSpaceOnUse" x1="381.387" y1="277.495" x2="380.552" y2="245.683" gradientTransform="scale(.816 1.225)"/><linearGradient xlink:href="#b" id="k" gradientUnits="userSpaceOnUse" gradientTransform="scale(.816 1.225)" x1="379.096" y1="240.927" x2="376.796" y2="281.016"/><linearGradient xlink:href="#b" id="l" gradientUnits="userSpaceOnUse" x1="389.635" y1="242.282" x2="387.069" y2="281.325" gradientTransform="scale(.816 1.225)"/><linearGradient xlink:href="#c" id="m" gradientUnits="userSpaceOnUse" spreadMethod="reflect" x1="437.579" y1="528.872" x2="437.579" y2="394.104" gradientTransform="scale(.813 1.23)"/><linearGradient xlink:href="#c" id="n" gradientUnits="userSpaceOnUse" x1="375.173" y1="419.785" x2="377.485" y2="324.038" gradientTransform="scale(.65 1.539)"/><linearGradient xlink:href="#a" id="o" gradientUnits="userSpaceOnUse" x1="320.751" y1="498.178" x2="321.322" y2="614.504" gradientTransform="scale(1.075 .93)"/><linearGradient xlink:href="#b" id="p" gradientUnits="userSpaceOnUse" x1="322.483" y1="435.268" x2="323.251" y2="488.483" gradientTransform="scale(1.077 .929)"/><linearGradient xlink:href="#b" id="q" gradientUnits="userSpaceOnUse" x1="411.221" y1="242.944" x2="411.221" y2="331.449" gradientTransform="scale(.572 1.749)"/><linearGradient xlink:href="#b" id="r" gradientUnits="userSpaceOnUse" x1="867.345" y1="234.739" x2="867.335" y2="314.839" gradientTransform="scale(.573 1.746)"/><linearGradient xlink:href="#d" id="s" gradientUnits="userSpaceOnUse" x1="236.254" y1="657.111" x2="212.51" y2="737.412" gradientTransform="scale(1.012 .989)"/><linearGradient xlink:href="#c" id="t" gradientUnits="userSpaceOnUse" x1="381.566" y1="655.731" x2="279.643" y2="386.666" gradientTransform="scale(1.065 .939)"/><linearGradient xlink:href="#d" id="u" gradientUnits="userSpaceOnUse" x1="218.117" y1="630.305" x2="203.127" y2="737.854" gradientTransform="scale(1.01 .99)"/><linearGradient xlink:href="#b" id="v" gradientUnits="userSpaceOnUse" gradientTransform="scale(1.008 .992)" x1="117.89" y1="587.236" x2="182.245" y2="704.731"/><linearGradient xlink:href="#b" id="w" gradientUnits="userSpaceOnUse" x1="223.101" y1="570.418" x2="230.535" y2="710.977"/><linearGradient xlink:href="#b" id="x" gradientUnits="userSpaceOnUse" x1="316.94" y1="474.018" x2="371.609" y2="582.635" gradientTransform="scale(1.065 .939)"/><linearGradient xlink:href="#d" id="y" gradientUnits="userSpaceOnUse" x1="284.687" y1="410.463" x2="285.459" y2="485.699" gradientTransform="scale(1.219 .821)"/><linearGradient xlink:href="#b" id="z" gradientUnits="userSpaceOnUse" x1="288.824" y1="398.854" x2="288.376" y2="482.559" gradientTransform="scale(1.222 .818)"/></defs><path transform="matrix(1.418 0 0 .415 -349.546 157.941)" d="M670.882 1166.642a203.896 186.63 0 1 1-407.79 0 203.896 186.63 0 1 1 407.79 0z" fill="url(#f)"/><path d="M154.236 558.542c-27.985-40.28-33.443-171.23 31.858-251.788 32.358-38.647 40.613-65.58 43.164-101.74 1.736-41.225-29.156-164.303 87.354-173.68 118.007-9.416 111.67 107.074 110.99 168.718-.563 52.05 38.22 81.55 64.746 122.12 49.1 74.536 44.946 202.874-9.25 272.34-68.645 86.96-127.44 49.246-166.486 52.41-73.116 4.004-75.534 42.99-162.376-88.38z"/><path d="M439.44 329.946c20.263 18.65 73 102.61-10.378 154.878-29.393 18.2 26.215 87.877 52.91 54.113 47.11-60.614 17.056-157.116-11.21-191.69-19.194-24.508-48.542-34-31.322-17.3z" fill="url(#g)"/><path transform="matrix(-1.678 0 0 1.524 863.868 -382.335)" d="M256.513 459.837c-19.915 17.717-56.176 80.09-3.288 120.606 17.37 12.632-15.393 52.463-33.79 32.09-63.963-70.82 1.67-152.255 24.262-180.25 20.192-24.348 38.078 5.75 12.816 27.554z" stroke="#000" stroke-width=".977"/><path transform="matrix(1.266 -.071 -.046 1.196 -108.609 -190.014)" d="M399.57 258.158a58.373 46.863 0 1 1-116.748 0 58.373 46.863 0 1 1 116.747 0z" fill="url(#h)"/><path transform="matrix(1.304 -.076 .077 1.343 -165.995 -241.87)" d="M328.863 320.642a18.087 27.13 0 1 1-36.175 0 18.087 27.13 0 1 1 36.175 0z" fill="url(#i)"/><path transform="matrix(-1.811 .05 .032 1.553 896.708 -349.03)" d="M328.863 320.642a18.087 27.13 0 1 1-36.175 0 18.087 27.13 0 1 1 36.175 0z" fill="url(#j)"/><path transform="matrix(-.823 -.002 -.018 .853 602.922 -102.243)" d="M328.863 320.642a18.087 27.13 0 1 1-36.175 0 18.087 27.13 0 1 1 36.175 0z"/><path transform="matrix(.594 -.072 .069 .706 56.696 -31.834)" d="M328.863 320.642a18.087 27.13 0 1 1-36.175 0 18.087 27.13 0 1 1 36.175 0z"/><path transform="matrix(-.48 -.036 -.047 .476 502.744 22.759)" d="M328.863 320.642a18.087 27.13 0 1 1-36.175 0 18.087 27.13 0 1 1 36.175 0z" fill="url(#k)"/><path transform="matrix(.357 -.041 .041 .399 138.582 50.738)" d="M328.863 320.642a18.087 27.13 0 1 1-36.175 0 18.087 27.13 0 1 1 36.175 0z" fill="url(#l)"/><path d="M198.08 386.798c16.044-36.38 50.142-100.282 50.868-149.697 0-39.3 117.724-48.684 127.17-9.443 9.45 39.242 33.428 98.104 48.69 126.445 15.26 28.34 59.76 118.37 12.354 196.933-42.696 69.556-172.156 124.583-241.262-9.445-23.254-46.51-19.107-104.144 2.18-154.787z" fill="url(#m)"/><path d="M183.385 359.754c-13.71 25.945-42.24 94.18 27.267 131.518 74.823 39.64 74.452 121.216-15.358 82.397-82.106-35.09-45.786-176.856-22.816-210.77 15.06-23.76 37.648-52.84 10.907-3.15z" fill="url(#n)"/><path d="M195.343 330.392c-21.83 35.635-74.22 119.766-4.11 163.404 94.46 57.944 67.716 115.89-18.5 63.717-121.385-72.83-14.78-219.52 33.915-275.422 55.555-62.75 10.693 11.36-11.305 48.306z" stroke="#000" stroke-width="1.563"/><path d="M408.058 400.48c0 39.705-38.112 91.283-103.545 90.82-67.48.557-96.282-51.115-96.282-90.82 0-39.704 44.767-71.928 99.92-71.928s99.912 32.224 99.912 71.93z" font-size="12" fill="url(#o)"/><path d="M372.566 275.585c-.726 41.156-27.514 50.865-61.415 50.865-33.9 0-58.51-6.076-61.41-50.865 0-28.077 27.513-44.326 61.415-44.326s61.416 16.244 61.416 44.32z" font-size="12" fill="url(#p)"/><path d="M167.558 338.836c22.145-33.745 68.77-85.455 8.72 7.266-48.687 76.304-18.002 125.34-2.18 138.8 45.66 40.7 43.71 67.935 7.995 46.506-77.03-45.782-61.044-122.81-14.535-192.572z" fill="url(#q)"/><path d="M488.03 352.642c-19.15-39.626-80.168-139.878 2.907-23.254 75.576 105.372 22.527 178.766 13.08 186.034-9.446 7.266-41.42 21.8-31.974-3.634 9.447-25.434 56.543-73.716 15.986-159.146z" fill="url(#r)"/><path d="M150.846 664.393c-50.553-26.77-124.065 5.155-97.378-67.582 5.345-16.543-7.968-41.26.727-57.403 10.173-19.622 31.975-15.26 45.056-28.342 12.9-13.613 21.08-37.06 45.06-33.427 23.98 3.634 39.93 33.077 56.68 69.037 12.354 25.797 56.176 62.08 53.31 90.947-3.37 44.375-53.783 52.738-103.45 26.776z" fill="url(#s)" stroke="#e68c3f" stroke-width="7.813"/><path d="M519.046 493.752c-7.776 14.558-39.807 37.645-61.14 31.606-21.768-5.924-31.552-38.885-27.273-63.823 3.976-28.084 27.33-29.463 56.61-15.588 31.477 15.36 40.99 28.51 31.803 47.805z" font-size="12" fill="url(#t)"/><path transform="matrix(-1.169 .423 .475 1.165 417.591 -278.074)" d="M220.274 718.402c-41.327-23.59-99.894 5.605-77.26-55.547 4.735-13.068-6.597-33.552.36-46.47 8.138-15.698 25.8-11.665 36.265-22.13 10.313-10.89 18.822-27.868 38.01-24.96 19.18 2.906 29.974 24.68 43.373 53.447 9.883 20.638 43.415 48.97 41.124 72.065-2.696 35.5-42.724 45.47-81.877 23.595z" fill="url(#u)" stroke="#e68c3f" stroke-width="6.251"/><path d="M485.49 591.825c57.39-84.74 14.618-84.112.29-90.516-14.367-6.868-29.606-20.17-46.504-10.79-16.896 9.38-17.863 33.904-18.328 66.02-.59 23.13-19.95 61.574-8.307 83.04 13.97 25.014 47.87-11.33 72.85-47.76z" fill="url(#v)"/><path d="M139.3 604.24c-85.9-55.65-45.733-74.52-32.7-83.254 15.63-11.2 15.744-33.037 34.956-30.994 19.21 2.043 30.404 25.71 43.367 55.105 9.572 21.073 42.4 48.93 40.064 73.24-3.087 28.494-48.476 9.7-85.686-14.097z" fill="url(#w)"/><path d="M514.102 492.95c-6.707 11.682-34.34 30.23-52.75 25.413-18.782-4.725-27.227-31.143-23.538-51.143 3.427-22.524 23.578-23.656 48.842-12.564 27.16 12.278 35.37 22.812 27.446 38.294z" font-size="12"/><path d="M495.507 485.93c-4.27 8.095-22.456 20.948-34.92 17.61-12.713-3.276-18.923-21.582-16.85-35.44 1.844-15.608 15.358-16.393 32.554-8.706 18.5 8.51 24.23 15.81 19.22 26.537z" font-size="12" fill="url(#x)"/><path d="M262.144 191.653c8.934-8.462 31.014-33.832 72.452-7.194 7.702 5.01 13.952 5.47 28.776 11.814 29.657 12.186 15.477 41.574-15.93 51.385-13.447 4.36-25.67 20.695-50.16 19.3-20.92-1.22-26.4-14.844-39.25-22.384-22.835-12.89-26.205-30.318-13.874-39.567 12.333-9.25 17.157-12.573 17.987-13.36z" fill="url(#y)" stroke="#e68c3f" stroke-width="4.688"/><path d="M363.766 215.298c-12.354.726-39.242 27.614-67.583 27.614-28.34 0-45.055-26.16-49.415-26.16" stroke="#e68c3f" stroke-width="3.125" fill="none"/><path d="M276.265 189.447c4.488-4.034 18.646-15.107 37.42-3.77 3.957 2.244 8.042 4.687 14.118 8.024 12.033 7.006 6.073 17.097-8.344 23.48-6.548 2.68-17.33 8.59-25.546 8.18-9.127-.84-15.032-6.795-21.08-10.673-11.097-7.333-10.423-13.254-5.27-18.183 3.898-3.384 8.28-6.677 8.697-7.052z" fill="url(#z)"/></svg>